<mxfile host="app.diagrams.net" modified="2024-02-04T20:19:46.943Z" agent="Mozilla/5.0 (Windows NT 10.0; Win64; x64) AppleWebKit/537.36 (KHTML, like Gecko) Chrome/121.0.0.0 Safari/537.36" etag="PCvjU4CAXPIQL_38Pbee" version="23.1.1" type="github">
  <diagram name="Page-1" id="6uHussrp55jo0OkZguIO">
    <mxGraphModel dx="1995" dy="1028" grid="1" gridSize="10" guides="1" tooltips="1" connect="1" arrows="1" fold="1" page="1" pageScale="1" pageWidth="827" pageHeight="1169" math="0" shadow="0">
      <root>
        <mxCell id="0" />
        <mxCell id="1" parent="0" />
        <mxCell id="_WblBXWKnYYsO8WDilM0-3" value="" style="edgeStyle=orthogonalEdgeStyle;rounded=0;orthogonalLoop=1;jettySize=auto;html=1;" edge="1" parent="1" source="_WblBXWKnYYsO8WDilM0-1" target="_WblBXWKnYYsO8WDilM0-2">
          <mxGeometry relative="1" as="geometry" />
        </mxCell>
        <mxCell id="_WblBXWKnYYsO8WDilM0-1" value="Material App" style="rounded=1;whiteSpace=wrap;html=1;" vertex="1" parent="1">
          <mxGeometry x="110" y="70" width="120" height="60" as="geometry" />
        </mxCell>
        <mxCell id="_WblBXWKnYYsO8WDilM0-5" value="" style="edgeStyle=orthogonalEdgeStyle;rounded=0;orthogonalLoop=1;jettySize=auto;html=1;" edge="1" parent="1" source="_WblBXWKnYYsO8WDilM0-2" target="_WblBXWKnYYsO8WDilM0-4">
          <mxGeometry relative="1" as="geometry" />
        </mxCell>
        <mxCell id="_WblBXWKnYYsO8WDilM0-7" value="" style="edgeStyle=orthogonalEdgeStyle;rounded=0;orthogonalLoop=1;jettySize=auto;html=1;" edge="1" parent="1" source="_WblBXWKnYYsO8WDilM0-2" target="_WblBXWKnYYsO8WDilM0-6">
          <mxGeometry relative="1" as="geometry" />
        </mxCell>
        <mxCell id="_WblBXWKnYYsO8WDilM0-9" value="" style="edgeStyle=orthogonalEdgeStyle;rounded=0;orthogonalLoop=1;jettySize=auto;html=1;" edge="1" parent="1" source="_WblBXWKnYYsO8WDilM0-2" target="_WblBXWKnYYsO8WDilM0-8">
          <mxGeometry relative="1" as="geometry" />
        </mxCell>
        <mxCell id="_WblBXWKnYYsO8WDilM0-2" value="Scaffold&amp;nbsp;" style="rounded=1;whiteSpace=wrap;html=1;" vertex="1" parent="1">
          <mxGeometry x="110" y="210" width="120" height="60" as="geometry" />
        </mxCell>
        <mxCell id="_WblBXWKnYYsO8WDilM0-4" value="Color Widget" style="rounded=1;whiteSpace=wrap;html=1;" vertex="1" parent="1">
          <mxGeometry x="-150" y="350" width="120" height="60" as="geometry" />
        </mxCell>
        <mxCell id="F7BPTEMzuZgk-lEwNE67-2" value="" style="edgeStyle=orthogonalEdgeStyle;rounded=0;orthogonalLoop=1;jettySize=auto;html=1;" edge="1" parent="1" source="_WblBXWKnYYsO8WDilM0-6" target="F7BPTEMzuZgk-lEwNE67-1">
          <mxGeometry relative="1" as="geometry" />
        </mxCell>
        <mxCell id="_WblBXWKnYYsO8WDilM0-6" value="Center&amp;nbsp;" style="rounded=1;whiteSpace=wrap;html=1;" vertex="1" parent="1">
          <mxGeometry x="370" y="350" width="120" height="60" as="geometry" />
        </mxCell>
        <mxCell id="F7BPTEMzuZgk-lEwNE67-6" value="" style="edgeStyle=orthogonalEdgeStyle;rounded=0;orthogonalLoop=1;jettySize=auto;html=1;" edge="1" parent="1" source="_WblBXWKnYYsO8WDilM0-8" target="F7BPTEMzuZgk-lEwNE67-5">
          <mxGeometry relative="1" as="geometry" />
        </mxCell>
        <mxCell id="F7BPTEMzuZgk-lEwNE67-9" value="" style="edgeStyle=orthogonalEdgeStyle;rounded=0;orthogonalLoop=1;jettySize=auto;html=1;" edge="1" parent="1" source="_WblBXWKnYYsO8WDilM0-8" target="F7BPTEMzuZgk-lEwNE67-8">
          <mxGeometry relative="1" as="geometry" />
        </mxCell>
        <mxCell id="_WblBXWKnYYsO8WDilM0-8" value="AppBar" style="rounded=1;whiteSpace=wrap;html=1;" vertex="1" parent="1">
          <mxGeometry x="110" y="350" width="120" height="60" as="geometry" />
        </mxCell>
        <mxCell id="F7BPTEMzuZgk-lEwNE67-4" value="" style="edgeStyle=orthogonalEdgeStyle;rounded=0;orthogonalLoop=1;jettySize=auto;html=1;" edge="1" parent="1" source="F7BPTEMzuZgk-lEwNE67-1" target="F7BPTEMzuZgk-lEwNE67-3">
          <mxGeometry relative="1" as="geometry" />
        </mxCell>
        <mxCell id="F7BPTEMzuZgk-lEwNE67-1" value="Image" style="rounded=1;whiteSpace=wrap;html=1;" vertex="1" parent="1">
          <mxGeometry x="370" y="490" width="120" height="60" as="geometry" />
        </mxCell>
        <mxCell id="F7BPTEMzuZgk-lEwNE67-3" value="Network Image" style="rounded=1;whiteSpace=wrap;html=1;" vertex="1" parent="1">
          <mxGeometry x="370" y="630" width="120" height="60" as="geometry" />
        </mxCell>
        <mxCell id="F7BPTEMzuZgk-lEwNE67-5" value="Text" style="rounded=1;whiteSpace=wrap;html=1;" vertex="1" parent="1">
          <mxGeometry x="110" y="490" width="120" height="60" as="geometry" />
        </mxCell>
        <mxCell id="F7BPTEMzuZgk-lEwNE67-8" value="Color" style="rounded=1;whiteSpace=wrap;html=1;" vertex="1" parent="1">
          <mxGeometry x="-40" y="490" width="120" height="60" as="geometry" />
        </mxCell>
      </root>
    </mxGraphModel>
  </diagram>
</mxfile>
